<svg width="347" height="128" viewBox="0 0 347 128" fill="none" xmlns="http://www.w3.org/2000/svg">
<mask id="path-1-outside-1" maskUnits="userSpaceOnUse" x="0.159973" y="-0.264008" width="347" height="128" fill="black">
<rect fill="white" x="0.159973" y="-0.264008" width="347" height="128"/>
<path d="M51.488 50.072C52.736 45.368 53.36 41.432 53.36 38.264C53.36 35.096 52.496 32.504 50.768 30.488C49.04 28.376 46.784 27.32 44 27.32C41.312 27.32 39.056 28.664 37.232 31.352C35.408 34.04 34.496 37.112 34.496 40.568C34.496 47.288 38.336 53.048 46.016 57.848C53.696 62.84 58.928 66.44 61.712 68.648C64.496 70.856 66.464 72.872 67.616 74.696C70.496 79.4 71.936 84.248 71.936 89.24C71.936 97.88 69.008 104.792 63.152 109.976C57.392 115.064 50.864 117.608 43.568 117.608C34.928 117.608 27.68 113.96 21.824 106.664C17.6 101.384 13.712 94.808 10.16 86.936L24.128 80.168C26.336 85.928 29.072 90.824 32.336 94.856C35.696 98.792 39.248 100.76 42.992 100.76C45.392 100.76 47.552 99.992 49.472 98.456C51.392 96.92 52.352 94.616 52.352 91.544C52.352 88.376 51.152 85.448 48.752 82.76C46.352 80.072 43.136 77.336 39.104 74.552C35.072 71.768 31.952 69.512 29.744 67.784C27.536 65.96 25.088 63.656 22.4 60.872C17.312 55.496 14.768 48.632 14.768 40.28C14.768 31.832 17.696 24.776 23.552 19.112C29.408 13.352 36.368 10.472 44.432 10.472C52.496 10.472 59.264 13.592 64.736 19.832C70.304 26.072 73.088 32.504 73.088 39.128C73.088 45.656 71.84 51.272 69.344 55.976L51.488 50.072Z"/>
<path d="M102.408 54.392C106.824 48.92 111.144 46.184 115.368 46.184C119.688 46.184 123.192 47.624 125.88 50.504C130.584 55.496 132.936 61.832 132.936 69.512C132.936 83.432 132.408 97.976 131.352 113.144L114.648 111.56C115.32 97.448 115.656 83.576 115.656 69.944C115.656 64.856 114.36 62.312 111.768 62.312C108.696 62.312 105.384 69.032 101.832 82.472C101.64 92.072 101.16 102.968 100.392 115.16L83.5437 113.576C84.7917 97.064 85.4157 78.632 85.4157 58.28C85.4157 37.928 85.0797 21.56 84.4077 9.17599L101.256 10.76C102.024 24.296 102.408 38.84 102.408 54.392Z"/>
<path d="M147.452 44.312L163.868 45.896V115.016L147.452 113.432V44.312ZM148.604 18.968L164.732 20.84L163.292 36.968L147.164 34.952L148.604 18.968Z"/>
<path d="M180.619 114.152C180.235 104.168 180.043 89.384 180.043 69.8C180.043 50.216 180.763 29.528 182.203 7.73599L199.051 9.03198C197.611 32.552 196.891 55.208 196.891 77C206.875 64.808 214.363 52.952 219.355 41.432L230.875 51.512C226.555 61.592 220.795 71.576 213.595 81.464C221.083 90.2 227.035 98.36 231.451 105.944L220.507 116.312C215.323 108.248 207.451 98.696 196.891 87.656C196.891 98.312 197.083 107.672 197.467 115.736L180.619 114.152Z"/>
<path d="M257.105 102.632C260.753 102.632 264.641 99.128 268.769 92.12L279.713 98.6C277.889 101.768 276.113 104.456 274.385 106.664C272.753 108.872 270.257 110.984 266.897 113C263.537 115.016 259.793 116.024 255.665 116.024C249.617 116.024 244.529 113.48 240.401 108.392C236.273 103.208 234.209 96.248 234.209 87.512C234.209 77.528 235.985 68.216 239.537 59.576C241.457 55.064 244.193 51.416 247.745 48.632C251.393 45.752 255.089 44.312 258.833 44.312C262.673 44.312 265.745 44.936 268.049 46.184C270.353 47.336 272.177 48.68 273.521 50.216C274.961 51.656 276.209 53.816 277.265 56.696C278.321 59.576 279.041 61.928 279.425 63.752C279.905 65.576 280.289 68.216 280.577 71.672C280.961 76.28 281.153 80.456 281.153 84.2C273.473 86.312 263.537 88.232 251.345 89.96C251.633 93.8 252.305 96.872 253.361 99.176C254.417 101.48 255.665 102.632 257.105 102.632ZM260.273 58.424C258.161 58.424 256.241 60.536 254.513 64.76C252.881 68.984 251.921 73.88 251.633 79.448C256.721 78.392 261.137 77.384 264.881 76.424C264.881 64.424 263.345 58.424 260.273 58.424Z"/>
<path d="M320.492 44.456C333.164 44.456 339.5 55.016 339.5 76.136C339.5 87.272 338.876 99.08 337.628 111.56L320.78 109.976C321.836 99.032 322.364 87.992 322.364 76.856C322.364 65.624 320.78 60.008 317.612 60.008C316.076 60.008 314.108 63.896 311.708 71.672C309.308 79.352 307.82 86.888 307.244 94.28C307.436 98.216 307.82 105.32 308.396 115.592L291.548 114.008C290.492 100.472 289.964 88.568 289.964 78.296C289.964 68.024 290.252 58.808 290.828 50.648L301.484 51.8C301.676 52.568 302.396 55.688 303.644 61.16C309.212 50.024 314.828 44.456 320.492 44.456Z"/>
</mask>
<path d="M51.488 50.072C52.736 45.368 53.36 41.432 53.36 38.264C53.36 35.096 52.496 32.504 50.768 30.488C49.04 28.376 46.784 27.32 44 27.32C41.312 27.32 39.056 28.664 37.232 31.352C35.408 34.04 34.496 37.112 34.496 40.568C34.496 47.288 38.336 53.048 46.016 57.848C53.696 62.84 58.928 66.44 61.712 68.648C64.496 70.856 66.464 72.872 67.616 74.696C70.496 79.4 71.936 84.248 71.936 89.24C71.936 97.88 69.008 104.792 63.152 109.976C57.392 115.064 50.864 117.608 43.568 117.608C34.928 117.608 27.68 113.96 21.824 106.664C17.6 101.384 13.712 94.808 10.16 86.936L24.128 80.168C26.336 85.928 29.072 90.824 32.336 94.856C35.696 98.792 39.248 100.76 42.992 100.76C45.392 100.76 47.552 99.992 49.472 98.456C51.392 96.92 52.352 94.616 52.352 91.544C52.352 88.376 51.152 85.448 48.752 82.76C46.352 80.072 43.136 77.336 39.104 74.552C35.072 71.768 31.952 69.512 29.744 67.784C27.536 65.96 25.088 63.656 22.4 60.872C17.312 55.496 14.768 48.632 14.768 40.28C14.768 31.832 17.696 24.776 23.552 19.112C29.408 13.352 36.368 10.472 44.432 10.472C52.496 10.472 59.264 13.592 64.736 19.832C70.304 26.072 73.088 32.504 73.088 39.128C73.088 45.656 71.84 51.272 69.344 55.976L51.488 50.072Z" stroke="white" stroke-width="14" mask="url(#path-1-outside-1)"/>
<path d="M102.408 54.392C106.824 48.92 111.144 46.184 115.368 46.184C119.688 46.184 123.192 47.624 125.88 50.504C130.584 55.496 132.936 61.832 132.936 69.512C132.936 83.432 132.408 97.976 131.352 113.144L114.648 111.56C115.32 97.448 115.656 83.576 115.656 69.944C115.656 64.856 114.36 62.312 111.768 62.312C108.696 62.312 105.384 69.032 101.832 82.472C101.64 92.072 101.16 102.968 100.392 115.16L83.5437 113.576C84.7917 97.064 85.4157 78.632 85.4157 58.28C85.4157 37.928 85.0797 21.56 84.4077 9.17599L101.256 10.76C102.024 24.296 102.408 38.84 102.408 54.392Z" stroke="white" stroke-width="14" mask="url(#path-1-outside-1)"/>
<path d="M147.452 44.312L163.868 45.896V115.016L147.452 113.432V44.312ZM148.604 18.968L164.732 20.84L163.292 36.968L147.164 34.952L148.604 18.968Z" stroke="white" stroke-width="14" mask="url(#path-1-outside-1)"/>
<path d="M180.619 114.152C180.235 104.168 180.043 89.384 180.043 69.8C180.043 50.216 180.763 29.528 182.203 7.73599L199.051 9.03198C197.611 32.552 196.891 55.208 196.891 77C206.875 64.808 214.363 52.952 219.355 41.432L230.875 51.512C226.555 61.592 220.795 71.576 213.595 81.464C221.083 90.2 227.035 98.36 231.451 105.944L220.507 116.312C215.323 108.248 207.451 98.696 196.891 87.656C196.891 98.312 197.083 107.672 197.467 115.736L180.619 114.152Z" stroke="white" stroke-width="14" mask="url(#path-1-outside-1)"/>
<path d="M257.105 102.632C260.753 102.632 264.641 99.128 268.769 92.12L279.713 98.6C277.889 101.768 276.113 104.456 274.385 106.664C272.753 108.872 270.257 110.984 266.897 113C263.537 115.016 259.793 116.024 255.665 116.024C249.617 116.024 244.529 113.48 240.401 108.392C236.273 103.208 234.209 96.248 234.209 87.512C234.209 77.528 235.985 68.216 239.537 59.576C241.457 55.064 244.193 51.416 247.745 48.632C251.393 45.752 255.089 44.312 258.833 44.312C262.673 44.312 265.745 44.936 268.049 46.184C270.353 47.336 272.177 48.68 273.521 50.216C274.961 51.656 276.209 53.816 277.265 56.696C278.321 59.576 279.041 61.928 279.425 63.752C279.905 65.576 280.289 68.216 280.577 71.672C280.961 76.28 281.153 80.456 281.153 84.2C273.473 86.312 263.537 88.232 251.345 89.96C251.633 93.8 252.305 96.872 253.361 99.176C254.417 101.48 255.665 102.632 257.105 102.632ZM260.273 58.424C258.161 58.424 256.241 60.536 254.513 64.76C252.881 68.984 251.921 73.88 251.633 79.448C256.721 78.392 261.137 77.384 264.881 76.424C264.881 64.424 263.345 58.424 260.273 58.424Z" stroke="white" stroke-width="14" mask="url(#path-1-outside-1)"/>
<path d="M320.492 44.456C333.164 44.456 339.5 55.016 339.5 76.136C339.5 87.272 338.876 99.08 337.628 111.56L320.78 109.976C321.836 99.032 322.364 87.992 322.364 76.856C322.364 65.624 320.78 60.008 317.612 60.008C316.076 60.008 314.108 63.896 311.708 71.672C309.308 79.352 307.82 86.888 307.244 94.28C307.436 98.216 307.82 105.32 308.396 115.592L291.548 114.008C290.492 100.472 289.964 88.568 289.964 78.296C289.964 68.024 290.252 58.808 290.828 50.648L301.484 51.8C301.676 52.568 302.396 55.688 303.644 61.16C309.212 50.024 314.828 44.456 320.492 44.456Z" stroke="white" stroke-width="14" mask="url(#path-1-outside-1)"/>
</svg>
